<svg xmlns="http://www.w3.org/2000/svg" viewBox="0 0 450 120" fill="none">
  <!-- Gear icon -->
  <g transform="translate(10, 0)">
    <!-- Gear teeth -->
    <path
      d="M60 6C57.5 6 55 6.2 52.6 6.6L50 14.5C47 15.2 44.2 16.3 41.5 17.8L34.5 13.2C32 15 29.8 17 27.8 19.3L31 27C29 29.6 27.3 32.4 26 35.5L17.5 35C16.3 37.8 15.4 40.8 14.8 43.8L21.5 49C21.2 52 21.2 55 21.5 58L14.8 63.2C15.4 66.2 16.3 69.2 17.5 72L26 71.5C27.3 74.6 29 77.4 31 80L27.8 87.7C29.8 90 32 92 34.5 93.8L41.5 89.2C44.2 90.7 47 91.8 50 92.5L52.6 100.4C55 100.8 57.5 101 60 101C62.5 101 65 100.8 67.4 100.4L70 92.5C73 91.8 75.8 90.7 78.5 89.2L85.5 93.8C88 92 90.2 90 92.2 87.7L89 80C91 77.4 92.7 74.6 94 71.5L102.5 72C103.7 69.2 104.6 66.2 105.2 63.2L98.5 58C98.8 55 98.8 52 98.5 49L105.2 43.8C104.6 40.8 103.7 37.8 102.5 35L94 35.5C92.7 32.4 91 29.6 89 27L92.2 19.3C90.2 17 88 15 85.5 13.2L78.5 17.8C75.8 16.3 73 15.2 70 14.5L67.4 6.6C65 6.2 62.5 6 60 6Z"
      stroke="hsl(351, 72%, 50%)"
      stroke-width="5"
      fill="none"
    />
    <!-- Outer G arc -->
    <path
      d="M82 38C76.5 29.5 68 25 59 25C45 25 34 36.5 34 51C34 65.5 45 77 59 77C68 77 76.5 72.5 82 64"
      stroke="hsl(351, 72%, 50%)"
      stroke-width="6"
      fill="none"
      stroke-linecap="round"
    />
    <!-- Outer G horizontal bar -->
    <line x1="60" y1="51" x2="82" y2="51" stroke="hsl(351, 72%, 50%)" stroke-width="6" stroke-linecap="round" />
    <!-- Inner G arc -->
    <path
      d="M73 43C70 38 64.5 35 59 35C50.5 35 44 42 44 51C44 60 50.5 67 59 67C64.5 67 70 64 73 59"
      stroke="hsl(351, 72%, 50%)"
      stroke-width="5"
      fill="none"
      stroke-linecap="round"
    />
    <!-- Inner G horizontal bar -->
    <line x1="59" y1="51" x2="73" y2="51" stroke="hsl(351, 72%, 50%)" stroke-width="5" stroke-linecap="round" />
  </g>

  <!-- Title: STONE -->
  <text x="140" y="72" font-family="'Manrope', sans-serif" font-weight="700" font-size="56" fill="white" letter-spacing="2">STONE</text>
  
  <!-- Subtitle: MARBLE -->
  <text x="143" y="100" font-family="'Manrope', sans-serif" font-weight="500" font-size="19" fill="#9CA3AF" letter-spacing="1">MARBLE</text>
</svg>
